<mxfile host="app.diagrams.net" agent="Mozilla/5.0 (Windows NT 10.0; Win64; x64) AppleWebKit/537.36 (KHTML, like Gecko) Chrome/131.0.0.0 Safari/537.36 Edg/131.0.0.0" version="25.0.3">
  <diagram name="Page-1" id="4DAGTaixwOPanv6KF3jp">
    <mxGraphModel dx="1379" dy="749" grid="1" gridSize="10" guides="1" tooltips="1" connect="1" arrows="1" fold="1" page="1" pageScale="1" pageWidth="850" pageHeight="1100" math="0" shadow="0">
      <root>
        <mxCell id="0" />
        <mxCell id="1" parent="0" />
        <mxCell id="5YlCEHxEtvI5rABHhLr1-19" value="" style="rounded=0;whiteSpace=wrap;html=1;" vertex="1" parent="1">
          <mxGeometry x="20" y="170" width="680" height="420" as="geometry" />
        </mxCell>
        <mxCell id="5YlCEHxEtvI5rABHhLr1-17" value="" style="rounded=0;whiteSpace=wrap;html=1;" vertex="1" parent="1">
          <mxGeometry x="30" y="430" width="230" height="130" as="geometry" />
        </mxCell>
        <mxCell id="5YlCEHxEtvI5rABHhLr1-14" value="" style="rounded=0;whiteSpace=wrap;html=1;" vertex="1" parent="1">
          <mxGeometry x="270" y="430" width="420" height="130" as="geometry" />
        </mxCell>
        <mxCell id="5YlCEHxEtvI5rABHhLr1-12" value="" style="rounded=0;whiteSpace=wrap;html=1;align=center;" vertex="1" parent="1">
          <mxGeometry x="30" y="250" width="660" height="150" as="geometry" />
        </mxCell>
        <mxCell id="5YlCEHxEtvI5rABHhLr1-3" value="" style="edgeStyle=orthogonalEdgeStyle;rounded=0;orthogonalLoop=1;jettySize=auto;html=1;" edge="1" parent="1" source="5YlCEHxEtvI5rABHhLr1-1" target="5YlCEHxEtvI5rABHhLr1-2">
          <mxGeometry relative="1" as="geometry" />
        </mxCell>
        <mxCell id="5YlCEHxEtvI5rABHhLr1-1" value="Kaggle -&amp;nbsp;imdb-dataset" style="rounded=0;whiteSpace=wrap;html=1;" vertex="1" parent="1">
          <mxGeometry x="40" y="320" width="160" height="60" as="geometry" />
        </mxCell>
        <mxCell id="5YlCEHxEtvI5rABHhLr1-5" value="" style="edgeStyle=orthogonalEdgeStyle;rounded=0;orthogonalLoop=1;jettySize=auto;html=1;" edge="1" parent="1" source="5YlCEHxEtvI5rABHhLr1-2" target="5YlCEHxEtvI5rABHhLr1-4">
          <mxGeometry relative="1" as="geometry" />
        </mxCell>
        <mxCell id="5YlCEHxEtvI5rABHhLr1-2" value="imdb2bronze" style="rounded=0;whiteSpace=wrap;html=1;" vertex="1" parent="1">
          <mxGeometry x="280" y="320" width="160" height="60" as="geometry" />
        </mxCell>
        <mxCell id="5YlCEHxEtvI5rABHhLr1-7" value="" style="edgeStyle=orthogonalEdgeStyle;rounded=0;orthogonalLoop=1;jettySize=auto;html=1;" edge="1" parent="1" source="5YlCEHxEtvI5rABHhLr1-4" target="5YlCEHxEtvI5rABHhLr1-6">
          <mxGeometry relative="1" as="geometry" />
        </mxCell>
        <mxCell id="5YlCEHxEtvI5rABHhLr1-4" value="bronze2silver" style="rounded=0;whiteSpace=wrap;html=1;" vertex="1" parent="1">
          <mxGeometry x="520" y="320" width="160" height="60" as="geometry" />
        </mxCell>
        <mxCell id="5YlCEHxEtvI5rABHhLr1-9" value="" style="edgeStyle=orthogonalEdgeStyle;rounded=0;orthogonalLoop=1;jettySize=auto;html=1;" edge="1" parent="1" source="5YlCEHxEtvI5rABHhLr1-6" target="5YlCEHxEtvI5rABHhLr1-8">
          <mxGeometry relative="1" as="geometry" />
        </mxCell>
        <mxCell id="5YlCEHxEtvI5rABHhLr1-6" value="silver/imbd - Storage Container" style="rounded=0;whiteSpace=wrap;html=1;" vertex="1" parent="1">
          <mxGeometry x="520" y="440" width="160" height="60" as="geometry" />
        </mxCell>
        <mxCell id="5YlCEHxEtvI5rABHhLr1-11" value="" style="edgeStyle=orthogonalEdgeStyle;rounded=0;orthogonalLoop=1;jettySize=auto;html=1;" edge="1" parent="1" source="5YlCEHxEtvI5rABHhLr1-8" target="5YlCEHxEtvI5rABHhLr1-10">
          <mxGeometry relative="1" as="geometry" />
        </mxCell>
        <mxCell id="5YlCEHxEtvI5rABHhLr1-8" value="Azure Synpatic Views" style="rounded=0;whiteSpace=wrap;html=1;" vertex="1" parent="1">
          <mxGeometry x="280" y="440" width="160" height="60" as="geometry" />
        </mxCell>
        <mxCell id="5YlCEHxEtvI5rABHhLr1-10" value="PowerBi Report" style="rounded=0;whiteSpace=wrap;html=1;" vertex="1" parent="1">
          <mxGeometry x="40" y="440" width="160" height="60" as="geometry" />
        </mxCell>
        <mxCell id="5YlCEHxEtvI5rABHhLr1-13" value="&lt;font style=&quot;font-size: 22px;&quot;&gt;Data Factory +&amp;nbsp;&lt;/font&gt;&lt;div&gt;&lt;span style=&quot;font-size: 22px; background-color: initial;&quot;&gt;Azure Databricks Service&lt;/span&gt;&lt;/div&gt;" style="text;html=1;align=center;verticalAlign=middle;whiteSpace=wrap;rounded=0;" vertex="1" parent="1">
          <mxGeometry x="195" y="270" width="330" height="30" as="geometry" />
        </mxCell>
        <mxCell id="5YlCEHxEtvI5rABHhLr1-15" value="&lt;div&gt;&lt;span style=&quot;font-size: 22px; background-color: initial;&quot;&gt;Synapse workspace&lt;/span&gt;&lt;/div&gt;" style="text;html=1;align=center;verticalAlign=middle;whiteSpace=wrap;rounded=0;" vertex="1" parent="1">
          <mxGeometry x="370" y="520" width="240" height="30" as="geometry" />
        </mxCell>
        <mxCell id="5YlCEHxEtvI5rABHhLr1-18" value="&lt;div&gt;&lt;span style=&quot;font-size: 22px; background-color: initial;&quot;&gt;PowerBi workspace&lt;/span&gt;&lt;/div&gt;" style="text;html=1;align=center;verticalAlign=middle;whiteSpace=wrap;rounded=0;" vertex="1" parent="1">
          <mxGeometry x="25" y="520" width="240" height="30" as="geometry" />
        </mxCell>
        <mxCell id="5YlCEHxEtvI5rABHhLr1-20" value="&lt;span style=&quot;font-size: 22px;&quot;&gt;Azure&lt;/span&gt;" style="text;html=1;align=center;verticalAlign=middle;whiteSpace=wrap;rounded=0;" vertex="1" parent="1">
          <mxGeometry x="195" y="190" width="330" height="30" as="geometry" />
        </mxCell>
      </root>
    </mxGraphModel>
  </diagram>
</mxfile>
